<svg id="Layer_1" data-name="Layer 1" xmlns="http://www.w3.org/2000/svg" viewBox="70 50 200 180">
    <defs>
        <style>
            .cls-1 {
                fill: #101820;
            }

            .cls-2 {
                fill: #70d44b;
            }
        </style>
    </defs>
    <path class="cls-2"
        d="M162,83a15.92,15.92,0,0,1,14.31,8.84l45,90A16,16,0,0,1,207,205H117a16,16,0,0,1-14.31-23.16l45-90A15.92,15.92,0,0,1,162,83m0-11a27,27,0,0,0-24.15,14.92l-45,90A27,27,0,0,0,117,216h90a27,27,0,0,0,24.15-39.08l-45-90A27,27,0,0,0,162,72Z" />
</svg>
